HIERARCHY
ROOT Hips
{
    OFFSET 0.000000 0.000000 0.000000
    CHANNELS 6 Xposition Yposition Zposition Zrotation Xrotation Yrotation
    JOINT Spine
    {
        OFFSET -0.000000 0.083210 0.000000
        CHANNELS 3 Zrotation Xrotation Yrotation
        JOINT Spine1
        {
            OFFSET -0.000000 0.256334 0.000000
            CHANNELS 3 Zrotation Xrotation Yrotation
            JOINT Neck
            {
                OFFSET -0.000000 0.275576 0.002912
                CHANNELS 3 Zrotation Xrotation Yrotation
                JOINT Head
                {
                    OFFSET -0.000000 0.157287 0.020295
                    CHANNELS 3 Zrotation Xrotation Yrotation
                    End Site
                    {
                        OFFSET -0.000000 0.202951 0.000000
                    }
                }
            }
            JOINT LeftShoulder
            {
                OFFSET 0.041044 0.235234 -0.000041
                CHANNELS 3 Zrotation Xrotation Yrotation
                JOINT LeftArm
                {
                    OFFSET 0.117964 0.000000 0.000000
                    CHANNELS 3 Zrotation Xrotation Yrotation
                    JOINT LeftForeArm
                    {
                        OFFSET 0.291248 0.000000 0.000000
                        CHANNELS 3 Zrotation Xrotation Yrotation
                        JOINT LeftHand
                        {
                            OFFSET 0.245673 0.000000 0.000000
                            CHANNELS 3 Zrotation Xrotation Yrotation
                            End Site
                            {
                                OFFSET 0.152213 0.000000 0.000000
                            }
                        }
                    }
                }
            }
            JOINT RightShoulder
            {
                OFFSET -0.040052 0.235234 -0.000041
                CHANNELS 3 Zrotation Xrotation Yrotation
                JOINT RightArm
                {
                    OFFSET -0.117964 0.000000 0.000000
                    CHANNELS 3 Zrotation Xrotation Yrotation
                    JOINT RightForeArm
                    {
                        OFFSET -0.291248 0.000000 0.000000
                        CHANNELS 3 Zrotation Xrotation Yrotation
                        JOINT RightHand
                        {
                            OFFSET -0.245673 0.000000 0.000000
                            CHANNELS 3 Zrotation Xrotation Yrotation
                            End Site
                            {
                                OFFSET -0.152213 0.000000 0.000000
                            }
                        }
                    }
                }
            }
        }
    }
    JOINT LeftUpLeg
    {
        OFFSET 0.101475 0.000000 0.000000
        CHANNELS 3 Zrotation Xrotation Yrotation
        JOINT LeftLeg
        {
            OFFSET -0.000000 -0.446535 0.000000
            CHANNELS 3 Zrotation Xrotation Yrotation
            JOINT LeftFoot
            {
                OFFSET -0.000000 -0.400037 0.000000
                CHANNELS 3 Zrotation Xrotation Yrotation
                JOINT LeftToeBase
                {
                    OFFSET -0.000000 -0.065959 0.152213
                    CHANNELS 3 Zrotation Xrotation Yrotation
                    End Site
                    {
                        OFFSET -0.000000 0.000000 0.040590
                    }
                }
            }
        }
    }
    JOINT RightUpLeg
    {
        OFFSET -0.101475 0.000000 0.000000
        CHANNELS 3 Zrotation Xrotation Yrotation
        JOINT RightLeg
        {
            OFFSET -0.000000 -0.446535 0.000000
            CHANNELS 3 Zrotation Xrotation Yrotation
            JOINT RightFoot
            {
                OFFSET -0.000000 -0.400037 0.000000
                CHANNELS 3 Zrotation Xrotation Yrotation
                JOINT RightToeBase
                {
                    OFFSET -0.000000 -0.065959 0.152213
                    CHANNELS 3 Zrotation Xrotation Yrotation
                    End Site
                    {
                        OFFSET -0.000000 0.000000 0.040590
                    }
                }
            }
        }
    }
}
MOTION
Frames:    4
Frame Time:    0.008333
0.817177    0.916899    0.227007    6.402260    2.196576    -85.417282    -1.082635    14.096424    3.401363    4.598644    8.105439    0.764993    6.940156    11.962333    -4.432063    0.782041    7.515493    -3.073492    2.186316    3.460829    -27.724371    -15.288294    47.887505    -74.147026    10.863345    -36.291676    -12.609600    -8.640590    -36.088844    12.558424    4.928535    7.807793    40.866142    32.541016    29.144955    37.740093    -13.777899    -47.294731    -3.138240    34.892509    -44.725544    12.920034    17.400791    -24.389320    8.923960    -4.454050    31.520510    3.925060    -8.403212    -9.440016    -0.580762    0.236721    1.749686    -2.343540    -10.163831    -26.932793    -3.092579    5.188103    38.987103    7.339892    4.794762    -16.897972    -20.008549    -0.008701    -3.033369    -0.167141    
0.817159    0.916905    0.226940    6.401444    2.191991    -85.407036    -1.085009    14.092541    3.402441    4.594193    8.107856    0.765466    6.943295    11.967918    -4.437174    0.792220    7.520092    -3.079672    2.184043    3.452922    -27.725004    -15.300578    47.873642    -74.134743    10.849764    -36.257587    -12.609836    -8.590567    -36.054447    12.607597    4.927231    7.860841    40.871376    32.469185    29.122427    37.775936    -13.793077    -47.311802    -3.146076    34.893806    -44.745094    12.916628    17.391375    -24.386293    8.914602    -4.444245    31.509336    3.921489    -8.411447    -9.435324    -0.585910    0.236930    1.752928    -2.344960    -10.169030    -26.930830    -3.102785    5.187554    38.993492    7.343501    4.793722    -16.903124    -20.010433    -0.008660    -3.035728    -0.166291    
0.817138    0.916913    0.226868    6.401289    2.188963    -85.395920    -1.086016    14.088309    3.401620    4.591566    8.107733    0.765396    6.942351    11.978432    -4.442199    0.801926    7.521137    -3.086318    2.180448    3.448223    -27.726688    -15.293666    47.867210    -74.131584    10.849273    -36.231632    -12.612414    -8.543062    -36.027454    12.664746    4.927349    7.862646    40.875660    32.453465    29.130463    37.786671    -13.810617    -47.326775    -3.160190    34.909431    -44.758751    12.926380    17.386978    -24.382425    8.900868    -4.444606    31.495420    3.914246    -8.409698    -9.429579    -0.577286    0.236357    1.747974    -2.340282    -10.169702    -26.929478    -3.110156    5.184338    38.999142    7.347215    4.788295    -16.907047    -20.018677    -0.008386    -3.040738    -0.160892    
0.817120    0.916917    0.226796    6.399572    2.187459    -85.384720    -1.086812    14.088377    3.401547    4.591127    8.101445    0.765573    6.944866    11.991309    -4.448814    0.801662    7.524174    -3.091741    2.176443    3.447812    -27.726574    -15.284073    47.861954    -74.132210    10.851420    -36.211693    -12.618438    -8.494168    -36.005642    12.718102    4.926032    7.861933    40.882599    32.448116    29.135889    37.786758    -13.817956    -47.342487    -3.164961    34.933903    -44.769283    12.945329    17.384560    -24.378023    8.888266    -4.444371    31.482546    3.911346    -8.414814    -9.423335    -0.573892    0.235851    1.744458    -2.335975    -10.169684    -26.926756    -3.104139    5.195620    39.004211    7.332427    4.778222    -16.908697    -20.025700    -0.008922    -3.042051    -0.171140    
